<?xml version="1.0" encoding="utf-8"?>
<svg viewBox="0 0 500 500" xmlns="http://www.w3.org/2000/svg">
  <g transform="matrix(-1.097897, 0, 0, 1.097299, 627.245239, -60.4328)" style="">
    <path d="m442.53 443.13c31.246-19.961 32.984-18.23 16.492-6.0781-16.492 12.148 13.02-5.207-2.6016 6.0781l-6.9414 6.9453s-11.285 13.02-19.098 13.883c-7.8125 0.86719 8.6719-0.86328-2.6055 4.3477-11.285 5.2031-93.836 42.449-227.41-54.688 37.328 62.496 103.29 90.27 158.84 91.137 0 0-17.367 0-7.8125 1.7344 9.5469 1.7344-4.3438 14.75-85.934-15.621 3.4805 7.8086 4.3477 10.41 13.895 15.621 0 0-106.76-36.457-144.08-144.08 0.86719 13.016 1.7305 27.773 1.7305 27.773s-53.816-95.48 10.422-213.52c64.227-118.04 205.7-122.38 224.8-121.51 19.098 0.86328 125.85 25.168 150.15 50.344 24.309 25.164-12.145 8.6758-12.145 8.6758s-12.16 6.9453 7.8125 17.355c19.957 10.422 41.656 45.133 25.16 32.113-16.488-13.012 7.8125 15.629 10.418 17.363 2.6016 1.7344-36.453-17.363-26.035-6.0781 10.414 11.281 55.547 60.758 40.793 75.52-14.758 14.75-19.969-26.047-22.57-28.648-2.6055-2.6094 4.3516 59.891 0 70.297-4.3438 10.422-3.4727-23.422-12.145-33.84-8.6797-10.414-11.289-9.5508-17.367-9.5508-6.0664 0-22.559-16.484-24.301-26.039-1.7344-9.5469-6.9414-12.156-14.758-19.961-7.8086-7.8125-19.957-15.621-34.715-14.758-14.754 0.87109-6.9414-17.359-32.117-17.359-25.168 0-39.93-4.332-61.621 5.2109-21.695 9.5469-61.625 20.828-65.102 21.691-3.4688 0.87109 36.457-21.691 42.539-25.168 6.0703-3.4648-94.613 22.57-111.1 62.492-16.496 39.938-31.242 108.5 25.172 170.98 56.418 62.504 157.09 68.57 202.23 37.328" fill-rule="evenodd" style="fill: rgb(229, 229, 229);"/>
  </g>
  <g transform="matrix(0.743169, 0, 0, 0.743169, -10.110588, 41.91338)">
    <path d="m189.95 388.29c16.625 5.8086 35.262 6.2148 52.398 2.6953 34.781-7.1562 62.195-18.609 84.617-32.008 5.9258-3.543 9.9023-9.5586 10.852-16.398 3.4219-24.629 9.5742-85.523-8.6406-110.73-12.129-16.789-29.266-26.219-49.359-30.207-16.398-3.2461-31.414-6.4062-45.586-14.258-2.9609-1.6406-1.9102-6.1367 1.4727-6.2109 17.496-0.37891 35.023-0.63281 52.289 2.0117 20.828 3.1914 41.59 11 56.48 25.898 1.8086-6.1484 2.1523-12.723 1.0352-19.035-0.35938-2.0234 1.9609-3.4219 3.5938-2.1797 9.5352 7.2578 16.414 17.863 20.559 29.188 4.8281 13.199 6.2383 27.402 6.6758 41.445 3.5625-2.9844 6.6133-6.5781 9.0039-10.566 1.2305-2.0625 4.3164-1.6562 4.8203 0.6875 0.81641 3.8125 1.8594 7.6836 2.0547 10.176 0.57812 7.4688 0.65625 14.98 0.23047 22.461-0.77344 13.559-3.168 27.105-6.8086 40.18 0 0 55.301-70 27.535-143.27s-92.398-112.46-92.398-112.46-21.699-28-31.266-28c-9.5664 0-5.1367 55.059-5.1367 55.07 0.34766 4.3438-9.8125 13.156-12.477 16.426-6.0039 7.3711-12.617 14.246-19.734 20.547-16.559 14.648-35.301 23.816-54.758 33.809-2.1172 1.0859-4.4453 2.4297-5.0273 4.7305-0.46484 1.8242 0.33203 3.7227 1.2148 5.3867 15.098 28.297 58.273 37.082 87.051 38.102 1.8867 0.066406-0.55469 10.762-0.75781 11.367-4.3047 13.156-15.25 22.496-25.328 31.152-24.277 20.855-52.961 36.785-73.797 61.488-6.7969 8.0586-12.711 17.129-15.398 27.324-2.6875 10.191-1.832 21.656 4.0312 30.414 4.7773 7.1367 12.449 11.938 20.559 14.766zm85.09-244.64c6.1875 0 11.199 2.7148 11.199 6.0664 0 3.3477-5.0117 6.0664-11.199 6.0664s-11.199-2.7148-11.199-6.0664 5.0195-6.0664 11.199-6.0664z" style="fill: rgb(255, 255, 255);"/>
    <path d="m551.79 427.85c0-50.887-38.59-88.949-88.84-90.965-7.9922-0.32031-16.004 0.16797-23.91 1.3789-32.918 5.0352-62.344 21.996-90.895 38.16-29.496 16.695-58.605 31.902-92.004 39.375-30.34 6.7891-63.438 9.0156-88.414-12.738-3.7734-3.2891-7.2109-6.9609-10.238-10.953-1.4688-1.9375-4.3867-8.5391-7.6758-7.8438-2.2734 0.49219-1.6016 6.8984-1.3984 9.8945 2.9609 43.445 19.516 89.273 58.969 112.14 21.258 12.32 46.402 17.461 70.902 15.629 48.156-3.5938 92.949-30.004 138.46-44.309 24.422-7.6758 49.828-14.414 75.297-7.3008 26.273 7.3398 27.25 27.238 24.355 40.988-0.79688 3.7734 3.9023 6.25 6.4609 3.3594 31.59-35.68 28.926-86.82 28.926-86.82zm-82.008-29.617c-13.883-0.64844-27.828 0.94141-41.355 4.2773-13.602 3.207-26.852 8.2266-40.105 13.625-13.227 5.5-26.41 11.594-40.176 16.723 11.465-9.1523 23.508-17.398 36.383-24.562 12.848-7.1836 26.672-12.988 41.266-16.672 14.637-3.4102 29.98-4.6484 44.961-2.082 14.926 2.4531 29.242 8.7539 40.207 18.586-13.457-5.8398-27.289-9.1641-41.18-9.8945z" style="fill: rgb(255, 255, 255);"/>
  </g>
</svg>